<svg width="212" height="28" viewBox="0 0 212 28" fill="none" xmlns="http://www.w3.org/2000/svg">
<g clip-path="url(#clip0_12_185)">
<path d="M40.3131 2.14982H46.5993L49.5515 18.3521L52.1474 6.58053C52.8855 3.11986 54.4889 1.62547 56.9575 1.62547C59.4262 1.62547 61.0041 3.09364 61.7676 6.58053L64.3635 18.3521L67.3158 2.14982H73.6019L69.5045 21.97C68.9191 24.8015 67.0867 26.4008 64.5926 26.4008C62.0985 26.4008 60.3424 24.8539 59.757 22.2584L56.9321 9.46442L54.1071 22.2584C53.5218 24.8539 51.5112 26.4008 49.2716 26.4008C47.032 26.4008 44.945 24.8277 44.3597 21.97L40.2622 2.14982H40.3131Z" fill="#4DA6FF"/>
<path d="M74.9507 14C74.9507 6.94757 80.1171 1.65169 87.065 1.65169C94.0129 1.65169 99.1793 6.94757 99.1793 14C99.1793 21.0524 94.0129 26.3483 87.065 26.3483C80.1171 26.3483 74.9507 21.0524 74.9507 14ZM92.7404 14C92.7404 10.4869 90.2971 7.78652 87.0904 7.78652C83.8837 7.78652 81.4405 10.4869 81.4405 14C81.4405 17.5131 83.8837 20.2135 87.0904 20.2135C90.2971 20.2135 92.7404 17.5131 92.7404 14Z" fill="#4DA6FF"/>
<path d="M102.946 25.824V2.14981H112.591C118.038 2.14981 122.186 4.77153 122.186 10.015C122.186 15.2584 120.481 15.7041 117.783 16.5693C118.929 17.3296 119.692 18.7191 120.71 20.8427L123.051 25.824H116.205L114.068 21.367C113.279 19.7416 112.388 19.1648 110.352 19.1648H109.207V25.824H102.946ZM109.232 8.10112V13.397C109.207 13.397 112.566 13.397 112.566 13.397C114.398 13.397 115.696 12.3483 115.696 10.6704C115.696 8.99251 114.398 8.10112 112.642 8.10112H109.232Z" fill="#4DA6FF"/>
<path d="M133.435 19.8464H143.59V25.7978H132.595C128.727 25.7978 127.149 23.7004 127.149 20.3708V2.14981H133.435V19.8464Z" fill="#4DA6FF"/>
<path d="M155.755 25.824H146.669V2.14981H155.755C163.288 2.14981 168.277 6.89513 168.277 14.0786C168.277 21.2622 163.11 25.824 155.755 25.824ZM155.755 8.10112H152.956V20.03H155.755C159.42 20.03 161.812 17.6442 161.812 14.0786C161.812 10.5131 159.42 8.12734 155.755 8.12734V8.10112Z" fill="#4DA6FF"/>
<path d="M188.179 2.14981V25.824H181.893V2.14981H188.179Z" fill="#4DA6FF"/>
<path d="M210.728 8.10112H204.238V25.7978H197.952V8.10112H191.462V2.14981H210.753V8.10112H210.728Z" fill="#4DA6FF"/>
<path d="M1.27246 7.26218H11.2489V13.03H4.12288C2.54497 13.03 1.27246 11.7191 1.27246 10.0936V7.26218Z" fill="#4DA6FF"/>
<path d="M8.3986 24.5918H1.27255V18.824H11.249V21.6554C11.249 23.2809 9.97651 24.5918 8.3986 24.5918Z" fill="#4DA6FF"/>
<path d="M11.4017 12.7154C11.3508 12.7154 11.2999 12.7154 11.249 12.7154V18.5094C11.2999 18.5094 11.3508 18.5094 11.4017 18.5094C15.9573 18.5094 19.6476 22.3371 19.6476 27.0037C19.6476 31.6704 19.6476 27.1086 19.6476 27.1611H25.2721C25.2721 27.1086 25.2721 27.0562 25.2721 27.0037C25.2721 19.1386 19.0622 12.7154 11.4017 12.7154Z" fill="#4DA6FF"/>
<path d="M14.3539 0.838959C16.0846 0.838959 17.4589 2.28091 17.4589 4.03746C17.4589 5.82023 16.0591 7.23596 14.3539 7.23596H11.249V4.03746C11.249 2.25469 12.6488 0.838959 14.3539 0.838959Z" fill="#4DA6FF"/>
<path d="M19.8001 9.5693H19.9274C21.4798 9.5693 23.3377 9.35956 25.221 9.01874C27.0789 8.67792 28.9113 8.20601 30.3619 7.68166C30.4128 7.68166 30.4383 7.65544 30.4892 7.62923C30.311 6.29215 29.6748 5.05994 28.6822 4.14234C27.6897 3.25095 26.4171 2.75282 25.0937 2.75282C22.4215 2.75282 20.2073 4.74533 19.7492 7.34084C19.6983 7.65544 19.6729 7.99627 19.6729 8.33709C19.6729 8.67792 19.6729 8.4944 19.6729 8.54683C19.6729 8.88765 19.7238 9.22848 19.8001 9.54309V9.5693Z" fill="#4DA6FF"/>
<path d="M34.4595 6.65919C34.3323 5.9251 32.7035 5.53185 30.3112 5.53185C30.4639 5.84645 30.5911 6.16106 30.7184 6.50188C30.7184 6.55432 30.7438 6.60675 30.7693 6.65919C31.8891 6.65919 32.6271 6.79027 33.0343 6.92136C32.678 7.18353 32.0418 7.55057 30.9729 7.97005L30.6166 8.10113L30.4893 8.15357C29.0641 8.67791 27.3335 9.1236 25.5265 9.46443C25.4502 9.46443 25.3484 9.49065 25.272 9.51686C25.1702 9.51686 25.0684 9.54308 24.9666 9.5693C23.2106 9.8839 21.48 10.0412 20.0038 10.0674H19.902H19.4185C18.2987 10.0674 17.5606 9.93634 17.1534 9.80525C17.5097 9.54308 18.146 9.17604 19.2149 8.75656C19.2149 8.70413 19.2149 8.6517 19.2149 8.59926C19.2149 8.52061 19.2149 8.44196 19.2149 8.36331C19.2149 8.10113 19.2149 7.81274 19.2658 7.55057C17.0007 8.38952 15.601 9.30713 15.7282 10.0674C15.8555 10.8539 17.7388 11.2472 20.411 11.1685C20.5128 11.1685 20.5892 11.1685 20.691 11.1685C21.9635 11.1161 23.3887 10.9588 24.8394 10.7229C24.9412 10.7229 25.043 10.6966 25.1448 10.6704C25.2466 10.6704 25.3484 10.6442 25.4502 10.618C25.552 10.618 25.6538 10.5918 25.7556 10.5656C25.8574 10.5656 25.9592 10.5131 26.061 10.5131C27.5117 10.2247 28.9114 9.85769 30.1076 9.46443C30.1839 9.43821 30.2857 9.41199 30.3621 9.38578C32.9071 8.52061 34.5359 7.49814 34.4086 6.6854L34.4595 6.65919Z" fill="#4DA6FF"/>
<path d="M25.5519 11.0637C23.8722 11.3783 22.1925 11.5618 20.6909 11.6142C21.7089 13.0562 23.3377 13.9213 25.0683 13.9213C27.537 13.9213 29.6239 12.2172 30.2856 9.8839C28.8604 10.3558 27.2316 10.7491 25.5519 11.0637Z" fill="#4DA6FF"/>
</g>
<defs>
<clipPath id="clip0_12_185">
<rect width="212" height="28" fill="white"/>
</clipPath>
</defs>
</svg>
