<svg width="40" height="40" viewBox="0 0 40 40" fill="none" xmlns="http://www.w3.org/2000/svg">
<path d="M0 19.996C0 8.9525 8.9525 0 19.996 0C31.0394 0 39.9919 8.9525 39.9919 19.996C39.9919 31.0394 31.0394 39.9919 19.996 39.9919C8.9525 39.9919 0 31.0394 0 19.996Z" fill="#4DA6FF"/>
<path d="M12.0895 25.3273H10.4589L14.1229 15.1454H15.8978L19.5618 25.3273H17.9312L15.0526 16.9949H14.9731L12.0895 25.3273ZM12.363 21.34H17.6527V22.6327H12.363V21.34ZM21.8923 25.3273H20.2616L23.9256 15.1454H25.7005L29.3646 25.3273H27.7339L24.8553 16.9949H24.7758L21.8923 25.3273ZM22.1657 21.34H27.4555V22.6327H22.1657V21.34Z" fill="white"/>
</svg>
