<svg width="16" height="16" viewBox="0 0 16 16" fill="none" xmlns="http://www.w3.org/2000/svg">
<path d="M13.357 2.6431C13.3699 2.65607 13.3698 2.67695 13.357 2.68997L8.04739 7.99954L8.40091 8.35403L13.357 13.3101C13.3634 13.3166 13.3668 13.325 13.3667 13.3335L13.357 13.357C13.344 13.3699 13.3232 13.3697 13.3101 13.357L8.35403 8.40091L7.99954 8.04739L2.68997 13.357C2.68345 13.3634 2.67505 13.3668 2.66653 13.3667L2.6431 13.357C2.63013 13.344 2.63026 13.3232 2.6431 13.3101L7.59915 8.35403L7.95267 7.99954L2.6431 2.68997C2.63664 2.68345 2.6333 2.67505 2.63333 2.66653L2.6431 2.6431C2.64957 2.63662 2.65805 2.63336 2.66653 2.63333L2.68997 2.6431L7.99954 7.95267L8.35403 7.59915L13.3101 2.6431C13.3166 2.63666 13.325 2.63328 13.3335 2.63333L13.357 2.6431Z" fill="#1A1A1A" stroke="#1A1A1A"/>
</svg>
