<svg width="20" height="20" viewBox="0 0 20 20" fill="none" xmlns="http://www.w3.org/2000/svg">
<g clip-path="url(#clip0_53_508)">
<path d="M8.55493 17.4965C8.70119 17.7498 8.91154 17.9601 9.16485 18.1063C9.41815 18.2526 9.70549 18.3296 9.99797 18.3296C10.2905 18.3296 10.5778 18.2526 10.8311 18.1063C11.0844 17.9601 11.2948 17.7498 11.441 17.4965" stroke="#666666" stroke-width="1.66633" stroke-linecap="round" stroke-linejoin="round"/>
<path d="M2.7178 12.7691C2.60896 12.8884 2.53713 13.0367 2.51106 13.1961C2.48498 13.3555 2.50578 13.519 2.57092 13.6668C2.63606 13.8145 2.74274 13.9402 2.87798 14.0284C3.01322 14.1167 3.17119 14.1637 3.33268 14.1638H16.6633C16.8248 14.1639 16.9828 14.117 17.1181 14.0289C17.2535 13.9409 17.3603 13.8153 17.4256 13.6677C17.4909 13.52 17.5119 13.3566 17.486 13.1972C17.4602 13.0378 17.3885 12.8894 17.2799 12.7699C16.1718 11.6277 14.997 10.4137 14.997 6.66533C14.997 5.33951 14.4703 4.068 13.5328 3.13051C12.5953 2.19301 11.3238 1.66634 9.998 1.66634C8.67219 1.66634 7.40067 2.19301 6.46318 3.13051C5.52569 4.068 4.99901 5.33951 4.99901 6.66533C4.99901 10.4137 3.82341 11.6277 2.7178 12.7691Z" stroke="#666666" stroke-width="1.66633" stroke-linecap="round" stroke-linejoin="round"/>
</g>
<defs>
<clipPath id="clip0_53_508">
<rect width="19.996" height="19.996" fill="white"/>
</clipPath>
</defs>
</svg>
