<svg width="20" height="20" viewBox="0 0 20 20" fill="none" xmlns="http://www.w3.org/2000/svg">
<g clip-path="url(#clip0_53_513)">
<path d="M10.1813 1.66634H9.8147C9.37277 1.66634 8.94893 1.8419 8.63643 2.15439C8.32393 2.46689 8.14837 2.89073 8.14837 3.33267V3.48264C8.14807 3.77485 8.07094 4.06185 7.9247 4.31483C7.77846 4.56782 7.56827 4.77791 7.31521 4.92401L6.95695 5.1323C6.70363 5.27856 6.41628 5.35555 6.12378 5.35555C5.83128 5.35555 5.54393 5.27856 5.29061 5.1323L5.16564 5.06565C4.78327 4.84508 4.32901 4.78524 3.90256 4.89928C3.47612 5.01331 3.11235 5.29189 2.8911 5.67386L2.7078 5.99047C2.48723 6.37283 2.42739 6.8271 2.54143 7.25354C2.65546 7.67999 2.93404 8.04376 3.31601 8.26501L3.44099 8.34832C3.69283 8.49372 3.90224 8.70249 4.04841 8.95389C4.19457 9.2053 4.2724 9.49057 4.27415 9.78137V10.2063C4.27532 10.4999 4.19888 10.7886 4.05257 11.0432C3.90626 11.2978 3.69528 11.5092 3.44099 11.656L3.31601 11.731C2.93404 11.9522 2.65546 12.316 2.54143 12.7424C2.42739 13.1689 2.48723 13.6231 2.7078 14.0055L2.8911 14.3221C3.11235 14.7041 3.47612 14.9827 3.90256 15.0967C4.32901 15.2107 4.78327 15.1509 5.16564 14.9303L5.29061 14.8637C5.54393 14.7174 5.83128 14.6404 6.12378 14.6404C6.41628 14.6404 6.70363 14.7174 6.95695 14.8637L7.31521 15.072C7.56827 15.2181 7.77846 15.4282 7.9247 15.6811C8.07094 15.9341 8.14807 16.2211 8.14837 16.5133V16.6633C8.14837 17.1053 8.32393 17.5291 8.63643 17.8416C8.94893 18.1541 9.37277 18.3296 9.8147 18.3296H10.1813C10.6232 18.3296 11.0471 18.1541 11.3596 17.8416C11.6721 17.5291 11.8476 17.1053 11.8476 16.6633V16.5133C11.8479 16.2211 11.9251 15.9341 12.0713 15.6811C12.2175 15.4282 12.4277 15.2181 12.6808 15.072L13.0391 14.8637C13.2924 14.7174 13.5797 14.6404 13.8722 14.6404C14.1647 14.6404 14.4521 14.7174 14.7054 14.8637L14.8304 14.9303C15.2127 15.1509 15.667 15.2107 16.0934 15.0967C16.5199 14.9827 16.8837 14.7041 17.1049 14.3221L17.2882 13.9972C17.5088 13.6148 17.5686 13.1606 17.4546 12.7341C17.3405 12.3077 17.062 11.9439 16.68 11.7226L16.555 11.656C16.3007 11.5092 16.0897 11.2978 15.9434 11.0432C15.7971 10.7886 15.7207 10.4999 15.7218 10.2063V9.7897C15.7207 9.49608 15.7971 9.20736 15.9434 8.95278C16.0897 8.6982 16.3007 8.4868 16.555 8.33999L16.68 8.26501C17.062 8.04376 17.3405 7.67999 17.4546 7.25354C17.5686 6.8271 17.5088 6.37283 17.2882 5.99047L17.1049 5.67386C16.8837 5.29189 16.5199 5.01331 16.0934 4.89928C15.667 4.78524 15.2127 4.84508 14.8304 5.06565L14.7054 5.1323C14.4521 5.27856 14.1647 5.35555 13.8722 5.35555C13.5797 5.35555 13.2924 5.27856 13.0391 5.1323L12.6808 4.92401C12.4277 4.77791 12.2175 4.56782 12.0713 4.31483C11.9251 4.06185 11.8479 3.77485 11.8476 3.48264V3.33267C11.8476 2.89073 11.6721 2.46689 11.3596 2.15439C11.0471 1.8419 10.6232 1.66634 10.1813 1.66634Z" stroke="#666666" stroke-width="1.66633" stroke-linecap="round" stroke-linejoin="round"/>
<path d="M9.99797 12.4975C11.3784 12.4975 12.4975 11.3784 12.4975 9.99799C12.4975 8.61755 11.3784 7.49849 9.99797 7.49849C8.61754 7.49849 7.49847 8.61755 7.49847 9.99799C7.49847 11.3784 8.61754 12.4975 9.99797 12.4975Z" stroke="#666666" stroke-width="1.66633" stroke-linecap="round" stroke-linejoin="round"/>
</g>
<defs>
<clipPath id="clip0_53_513">
<rect width="19.996" height="19.996" fill="white"/>
</clipPath>
</defs>
</svg>
